HIERARCHY
ROOT Hips
{
	OFFSET 0.00000 0.00000 0.00000
	CHANNELS 6 Xposition Yposition Zposition Zrotation Yrotation Xrotation 
	JOINT LHipJoint
	{
		OFFSET 0 0 0
		CHANNELS 3 Zrotation Yrotation Xrotation
		JOINT LeftUpLeg
		{
			OFFSET 1.34019 -1.87553 0.90315
			CHANNELS 3 Zrotation Yrotation Xrotation
			JOINT LeftLeg
			{
				OFFSET 2.55316 -7.01474 0.00000
				CHANNELS 3 Zrotation Yrotation Xrotation
				JOINT LeftFoot
				{
					OFFSET 2.64657 -7.27139 0.00000
					CHANNELS 3 Zrotation Yrotation Xrotation
					JOINT LeftToeBase
					{
						OFFSET 0.24207 -0.66507 2.14489
						CHANNELS 3 Zrotation Yrotation Xrotation
						End Site
						{
							OFFSET 0.00000 -0.00000 1.12451
						}
					}
				}
			}
		}
	}
	JOINT RHipJoint
	{
		OFFSET 0 0 0
		CHANNELS 3 Zrotation Yrotation Xrotation
		JOINT RightUpLeg
		{
			OFFSET -1.28320 -1.87553 0.90315
			CHANNELS 3 Zrotation Yrotation Xrotation
			JOINT RightLeg
			{
				OFFSET -2.60484 -7.15674 0.00000
				CHANNELS 3 Zrotation Yrotation Xrotation
				JOINT RightFoot
				{
					OFFSET -2.60296 -7.15159 0.00000
					CHANNELS 3 Zrotation Yrotation Xrotation
					JOINT RightToeBase
					{
						OFFSET -0.31082 -0.85398 2.28998
						CHANNELS 3 Zrotation Yrotation Xrotation
						End Site
						{
							OFFSET -0.00000 -0.00000 1.21611
						}
					}
				}
			}
		}
	}
	JOINT LowerBack
	{
		OFFSET 0 0 0
		CHANNELS 3 Zrotation Yrotation Xrotation
		JOINT Spine
		{
			OFFSET -0.00160 2.05581 -0.15156
			CHANNELS 3 Zrotation Yrotation Xrotation
			JOINT Spine1
			{
				OFFSET 0.04594 2.06326 -0.01617
				CHANNELS 3 Zrotation Yrotation Xrotation
				JOINT Neck
				{
					OFFSET 0 0 0
					CHANNELS 3 Zrotation Yrotation Xrotation
					JOINT Neck1
					{
						OFFSET 0.03753 1.73883 0.26751
						CHANNELS 3 Zrotation Yrotation Xrotation
						JOINT Head
						{
							OFFSET -0.09795 1.76129 -0.31794
							CHANNELS 3 Zrotation Yrotation Xrotation
							End Site
							{
								OFFSET -0.03611 1.79987 -0.13846
							}
						}
					}
				}
				JOINT LeftShoulder
				{
					OFFSET 0 0 0
					CHANNELS 3 Zrotation Yrotation Xrotation
					JOINT LeftArm
					{
						OFFSET 3.30667 1.29205 -0.22445
						CHANNELS 3 Zrotation Yrotation Xrotation
						JOINT LeftForeArm
						{
							OFFSET 4.92785 -0.00000 -0.00000
							CHANNELS 3 Zrotation Yrotation Xrotation
							JOINT LeftHand
							{
								OFFSET 3.44052 -0.00000 0.00000
								CHANNELS 3 Zrotation Yrotation Xrotation
								JOINT LeftFingerBase
								{
									OFFSET 0 0 0
									CHANNELS 3 Zrotation Yrotation Xrotation
									JOINT LeftHandIndex1
									{
										OFFSET 0.65433 -0.00000 0.00000
										CHANNELS 3 Zrotation Yrotation Xrotation
										End Site
										{
											OFFSET 0.52753 -0.00000 0.00000
										}
									}
								}
								JOINT LThumb
								{
									OFFSET 0 0 0
									CHANNELS 3 Zrotation Yrotation Xrotation
									End Site
									{
										OFFSET 0.53559 -0.00000 0.53559
									}
								}
							}
						}
					}
				}
				JOINT RightShoulder
				{
					OFFSET 0 0 0
					CHANNELS 3 Zrotation Yrotation Xrotation
					JOINT RightArm
					{
						OFFSET -3.20032 1.49783 -0.27688
						CHANNELS 3 Zrotation Yrotation Xrotation
						JOINT RightForeArm
						{
							OFFSET -5.09181 -0.00000 -0.00000
							CHANNELS 3 Zrotation Yrotation Xrotation
							JOINT RightHand
							{
								OFFSET -3.49865 -0.00000 -0.00000
								CHANNELS 3 Zrotation Yrotation Xrotation
								JOINT RightFingerBase
								{
									OFFSET 0 0 0
									CHANNELS 3 Zrotation Yrotation Xrotation
									JOINT RightHandIndex1
									{
										OFFSET -0.66641 -0.00000 0.00000
										CHANNELS 3 Zrotation Yrotation Xrotation
										End Site
										{
											OFFSET -0.53728 -0.00000 0.00000
										}
									}
								}
								JOINT RThumb
								{
									OFFSET 0 0 0
									CHANNELS 3 Zrotation Yrotation Xrotation
									End Site
									{
										OFFSET -0.54548 -0.00000 0.54548
									}
								}
							}
						}
					}
				}
			}
		}
	}
}
MOTION
Frames: 12
Frame Time: .0083333
0.5100 17.9254 -19.9010 0.3235 -3.5117 11.2111 0.0000 0.0000 0.0000 -20.9535 -6.0752 -28.9974 2.7579 10.2924 29.9287 1.3002 5.4275 -24.1181 0.8578 -5.9063 -16.5127 0.0000 0.0000 0.0000 16.5594 -0.1100 -3.6093 -6.3816 -14.7882 46.4948 -2.7985 -19.5436 31.2148 -0.0279 -1.0788 2.9657 0.2279 2.4047 8.3866 1.5578 3.3227 -1.1835 1.0500 1.6553 -6.0232 4.3825 1.0824 -18.1100 -7.7444 1.9292 17.4871 -3.1099 0.3853 8.5571 -0.0000 -0.0000 0.0000 -90.2291 12.6681 -13.6644 6.2673 -10.7073 -0.5879 -0.0000 -0.0000 16.4075 15.7443 -0.7552 -0.2129 -7.1250 0.0000 -0.0000 -8.4430 29.1484 3.2939 -0.0000 -0.0000 0.0000 83.5358 4.5507 29.6580 -18.1779 28.3844 -4.6335 0.0000 -0.0000 -9.5310 -19.3255 -0.4870 0.1708 7.1250 -0.0000 -0.0000 5.7313 -30.4688 2.0428
0.5322 17.9398 -19.6700 0.9211 -3.8676 10.8651 0.0000 0.0000 0.0000 -21.9227 -5.4798 -27.4903 2.6172 10.0480 29.1322 1.2204 5.4578 -23.4945 0.8594 -5.9116 -16.5281 0.0000 0.0000 0.0000 15.3522 -0.0885 -5.8598 -7.4484 -15.6981 50.5505 -2.2553 -19.0835 28.3002 -0.0503 -1.4476 3.9812 -0.5304 2.3105 8.4865 1.4448 3.1107 -1.1309 1.3827 1.5745 -6.0546 4.5076 1.2279 -17.9677 -7.7994 2.1163 17.5690 -3.1270 0.4779 8.5740 0.0000 0.0000 0.0000 -90.4901 11.9401 -12.3851 6.3854 -10.9034 -0.6100 -0.0000 -0.0000 15.2396 15.9845 -0.4374 -0.1253 -7.1250 0.0000 -0.0000 -8.2825 29.4766 3.1647 0.0000 0.0000 0.0000 83.5015 3.7782 29.7463 -17.8615 27.9794 -4.4841 0.0000 -0.0000 -9.1760 -19.1241 -0.7712 0.2674 7.1250 -0.0000 -0.0000 5.9094 -30.7658 2.0646
0.5514 17.9525 -19.4415 1.6520 -4.1460 10.5283 0.0000 0.0000 0.0000 -23.0128 -4.9395 -25.9450 2.4582 9.7615 28.2078 1.1255 5.4819 -22.7217 0.8415 -5.8515 -16.3541 0.0000 0.0000 0.0000 14.0313 -0.1580 -8.2419 -8.5417 -16.5036 54.4913 -1.6479 -18.5508 24.7389 -0.0607 -1.5898 4.3733 -1.4328 2.1826 8.6007 1.3029 2.8354 -1.0915 1.7756 1.4671 -6.1070 4.6213 1.3804 -17.8500 -7.8205 2.3108 17.6890 -3.1306 0.5759 8.6085 0.0000 0.0000 0.0000 -90.7172 11.1914 -10.6501 6.5629 -11.1977 -0.6441 -0.0000 -0.0000 13.7803 16.1439 -0.1865 -0.0540 -7.1250 0.0000 -0.0000 -8.1791 29.7363 3.0734 0.0000 0.0000 0.0000 83.4868 2.9864 29.6901 -17.5126 27.5286 -4.3216 0.0000 -0.0000 -8.6519 -18.8534 -0.9976 0.3406 7.1250 -0.0000 -0.0000 6.1398 -31.0001 2.1113
0.5683 17.9625 -19.2147 2.4375 -4.3375 10.1989 0.0000 0.0000 0.0000 -24.1406 -4.4316 -24.3980 2.2948 9.4548 27.2288 1.0270 5.4617 -21.8570 0.7901 -5.6741 -15.8417 0.0000 0.0000 0.0000 12.6868 -0.3093 -10.7060 -9.6193 -17.1901 58.2082 -1.0836 -17.9303 20.9936 -0.0742 -1.7567 4.8338 -2.3834 2.0241 8.7382 1.1483 2.5104 -1.0693 2.1901 1.3374 -6.1829 4.7438 1.5419 -17.7347 -7.8155 2.5108 17.8235 -3.1262 0.6796 8.6487 -0.0000 0.0000 0.0000 -90.8921 10.4371 -8.5266 6.7978 -11.5860 -0.6905 -0.0000 -0.0000 12.0839 16.2151 -0.0258 -0.0075 -7.1250 0.0000 -0.0000 -8.1370 29.9026 3.0247 -0.0000 0.0000 0.0000 83.4887 2.1436 29.5151 -17.1574 27.0648 -4.1587 0.0000 -0.0000 -8.1716 -18.6161 -1.1783 0.3969 7.1250 -0.0000 -0.0000 6.3415 -31.1860 2.1530
0.5830 17.9694 -18.9896 3.1653 -4.4385 9.8952 0.0000 0.0000 0.0000 -25.1761 -3.9524 -22.9010 2.1415 9.1548 26.2809 0.9342 5.3738 -20.9634 0.7029 -5.3588 -14.9347 0.0000 0.0000 0.0000 11.4618 -0.4995 -13.2240 -10.6418 -17.7553 61.6126 -0.6175 -17.2424 17.3855 -0.1160 -2.1960 6.0476 -3.2691 1.8343 8.8766 1.0127 2.1489 -1.0558 2.5953 1.1885 -6.2558 4.8956 1.7153 -17.5844 -7.8157 2.7182 17.8916 -3.1262 0.7897 8.6613 0.0000 -0.0000 0.0000 -91.0178 9.6540 -6.1258 7.0906 -12.0682 -0.7505 -0.0000 -0.0000 10.2570 16.2126 0.0738 0.0215 -7.1250 0.0000 -0.0000 -8.1475 30.0054 3.0084 0.0000 -0.0000 0.0000 83.4955 1.2702 29.2152 -16.7876 26.5770 -3.9919 0.0000 -0.0000 -7.7162 -18.4106 -1.2574 0.4185 7.1250 -0.0000 -0.0000 6.5109 -31.2654 2.1987
0.5963 17.9725 -18.7651 3.7740 -4.4583 9.6294 0.0000 0.0000 0.0000 -26.0517 -3.5224 -21.4827 2.0098 8.8864 25.4407 0.8549 5.2504 -20.1347 0.5866 -4.9039 -13.6346 0.0000 0.0000 0.0000 10.4344 -0.6947 -15.7658 -11.5763 -18.2057 64.6392 -0.2409 -16.5549 13.9174 -0.1789 -2.7244 7.5123 -4.0169 1.6240 9.0020 0.9061 1.7746 -1.0507 2.9575 1.0295 -6.3166 5.0037 1.8695 -17.4304 -7.7620 2.9001 17.9663 -3.1038 0.8905 8.6725 -0.0000 -0.0000 0.0000 -91.0774 8.8373 -3.4923 7.4398 -12.6407 -0.8252 -0.0000 -0.0000 8.3342 16.1824 0.1778 0.0516 -7.1250 0.0000 -0.0000 -8.1801 30.1122 2.9996 -0.0000 -0.0000 0.0000 83.5107 0.3662 28.7785 -16.4114 26.0754 -3.8250 0.0000 -0.0000 -7.3021 -18.2807 -1.3630 0.4502 7.1250 -0.0000 -0.0000 6.6226 -31.3735 2.2195
0.6081 17.9714 -18.5410 4.2366 -4.3965 9.4089 0.0000 0.0000 0.0000 -26.7392 -3.1467 -20.1759 1.9064 8.6684 24.7634 0.7899 5.1125 -19.4059 0.4600 -4.3508 -12.0659 0.0000 0.0000 0.0000 9.6479 -0.8710 -18.3113 -12.4006 -18.5549 67.2532 0.0618 -15.9310 10.5339 -0.2562 -3.2563 8.9933 -4.5955 1.3905 9.1035 0.8331 1.3894 -1.0482 3.2628 0.8599 -6.3536 5.1817 2.0324 -17.3016 -7.7651 3.0850 18.0056 -3.1118 0.9915 8.6785 0.0000 0.0000 0.0000 -91.0587 7.9771 -0.7032 7.8452 -13.3015 -0.9162 -0.0000 -0.0000 6.3525 16.1224 0.3315 0.0958 -7.1250 0.0000 -0.0000 -8.2405 30.2698 2.9909 0.0000 0.0000 0.0000 83.5382 -0.5417 28.2005 -16.0175 25.5443 -3.6535 0.0000 -0.0000 -6.9240 -18.2186 -1.5360 0.5055 7.1250 -0.0000 -0.0000 6.6861 -31.5533 2.2120
0.6189 17.9662 -18.3157 4.5603 -4.2920 9.2240 0.0000 0.0000 0.0000 -27.2537 -2.8218 -18.9713 1.8321 8.5073 24.2660 0.7395 4.9922 -18.8118 0.3411 -3.7532 -10.3833 0.0000 0.0000 0.0000 9.0929 -0.9898 -20.8351 -13.1004 -18.8181 69.4369 0.2979 -15.3428 7.1631 -0.3252 -3.6656 10.1377 -5.0184 1.1531 9.1720 0.7897 1.0190 -1.0408 3.5105 0.6921 -6.3587 5.3194 2.1644 -17.2023 -7.7399 3.2311 18.0455 -3.1084 1.0739 8.6864 -0.0000 -0.0000 0.0000 -90.9670 7.0653 2.1399 8.3008 -14.0393 -1.0239 -0.0000 -0.0000 4.3815 16.0842 0.4757 0.1372 -7.1250 0.0000 -0.0000 -8.2834 30.4178 2.9771 -0.0000 -0.0000 0.0000 83.5681 -1.4642 27.4876 -15.6203 25.0031 -3.4839 0.0000 -0.0000 -6.6060 -18.2140 -1.8073 0.5946 7.1250 -0.0000 -0.0000 6.7124 -31.8368 2.1748
0.6281 17.9565 -18.0901 4.7894 -4.1457 9.0721 0.0000 0.0000 0.0000 -27.6426 -2.5727 -17.8574 1.7836 8.4000 23.9357 0.7031 4.9135 -18.3786 0.2475 -3.2011 -8.8392 0.0000 0.0000 0.0000 8.7236 -1.0408 -23.3262 -13.6716 -19.0114 71.1990 0.4662 -14.7674 3.7908 -0.3617 -3.8634 10.6928 -5.3431 0.9106 9.2203 0.7699 0.6549 -1.0382 3.7271 0.5242 -6.3518 5.5020 2.2944 -17.1004 -7.7639 3.3714 18.0461 -3.1295 1.1519 8.6819 0.0000 0.0000 0.0000 -90.8093 6.1163 4.9732 8.8027 -14.8455 -1.1491 -0.0000 -0.0000 2.4587 16.0618 0.6240 0.1797 -7.1250 0.0000 -0.0000 -8.3145 30.5703 2.9578 0.0000 0.0000 0.0000 83.5918 -2.4059 26.6522 -15.2187 24.4500 -3.3160 0.0000 -0.0000 -6.3723 -18.2447 -2.2093 0.7281 7.1250 -0.0000 -0.0000 6.7225 -32.2577 2.1095
0.6356 17.9415 -17.8640 5.0028 -3.9794 8.9278 0.0000 0.0000 0.0000 -28.0015 -2.3638 -16.8009 1.7541 8.3339 23.7330 0.6783 4.8787 -18.0900 0.1812 -2.7421 -7.5615 0.0000 0.0000 0.0000 8.4381 -1.0268 -25.7606 -14.1150 -19.1485 72.5553 0.5596 -14.1845 0.5442 -0.3849 -3.9840 11.0317 -5.6467 0.6749 9.2636 0.7462 0.3022 -1.0324 3.9260 0.3607 -6.3358 5.6495 2.3980 -17.0254 -7.7549 3.4765 18.0490 -3.1379 1.2138 8.6795 -0.0000 -0.0000 0.0000 -90.5829 5.1109 7.6809 9.3299 -15.6847 -1.2879 -0.0000 -0.0000 0.6441 16.0483 0.6435 0.1851 -7.1250 0.0000 -0.0000 -8.3268 30.5901 2.9583 -0.0000 -0.0000 0.0000 83.6180 -3.3633 25.6891 -14.8153 23.8881 -3.1507 0.0000 -0.0000 -6.2327 -18.2966 -2.7054 0.8941 7.1250 -0.0000 -0.0000 6.7254 -32.7778 2.0256
0.6410 17.9213 -17.6376 5.2513 -3.8108 8.7802 0.0000 0.0000 0.0000 -28.3900 -2.1735 -15.7750 1.7370 8.2953 23.6148 0.6664 4.8847 -17.9650 0.1399 -2.4103 -6.6410 0.0000 0.0000 0.0000 8.1689 -0.9317 -28.1249 -14.4331 -19.2402 73.5228 0.5824 -13.5861 -2.4740 -0.4016 -4.0685 11.2693 -6.0005 0.4516 9.3055 0.7117 -0.0405 -1.0173 4.1402 0.2029 -6.3071 5.7511 2.4813 -16.9690 -7.7068 3.5582 18.0776 -3.1285 1.2650 8.6859 -0.0000 -0.0000 0.0000 -90.3046 4.0236 10.2148 9.8674 -16.5319 -1.4370 -0.0000 0.0000 -1.0518 16.0471 0.5614 0.1615 -7.1250 0.0000 -0.0000 -8.3204 30.5056 2.9730 -0.0000 -0.0000 0.0000 83.6392 -4.3267 24.6027 -14.4078 23.3147 -2.9876 0.0000 -0.0000 -6.1338 -18.3478 -3.2716 1.0843 7.1250 -0.0000 -0.0000 6.7375 -33.3713 1.9320
0.6446 17.8960 -17.4106 5.5891 -3.6409 8.6096 0.0000 0.0000 0.0000 -28.8721 -1.9669 -14.7411 1.7252 8.2685 23.5327 0.6668 4.9193 -17.9926 0.1170 -2.2050 -6.0727 0.0000 0.0000 0.0000 7.8405 -0.7848 -30.3968 -14.6271 -19.2933 74.1107 0.5455 -12.9576 -5.1295 -0.4145 -4.1324 11.4495 -6.4495 0.2466 9.3582 0.6466 -0.3719 -0.9817 4.3739 0.0522 -6.2603 5.8174 2.5450 -16.9736 -7.6183 3.6140 18.1652 -3.1034 1.3041 8.7201 0.0000 -0.0000 0.0000 -89.9751 2.8559 12.5942 10.4202 -17.3942 -1.5983 -0.0000 0.0000 -2.6579 16.0969 0.3919 0.1131 -7.1250 0.0000 -0.0000 -8.2660 30.3318 2.9879 0.0000 -0.0000 0.0000 83.6676 -5.2795 23.3658 -13.9904 22.7210 -2.8244 0.0000 -0.0000 -6.0156 -18.3948 -3.8345 1.2740 7.1250 -0.0000 -0.0000 6.7551 -33.9617 1.8399
